<?xml version="1.0" encoding="iso-8859-1"?>
<!-- Generator: Adobe Illustrator 16.0.0, SVG Export Plug-In . SVG Version: 6.00 Build 0)  -->
<!DOCTYPE svg PUBLIC "-//W3C//DTD SVG 1.1//EN" "http://www.w3.org/Graphics/SVG/1.1/DTD/svg11.dtd">
<svg version="1.1" id="Capa_1" xmlns="http://www.w3.org/2000/svg" xmlns:xlink="http://www.w3.org/1999/xlink" x="0px" y="0px"
	 width="327.375px" height="327.375px" viewBox="0 0 327.375 327.375" style="enable-background:new 0 0 327.375 327.375;"
	 xml:space="preserve">
<g>
	<g>
		<path d="M100.646,0v0.211C55.577,2.257,20.996,21.194,18.41,45.473h-0.264v2.906v232.364v0.205c0,0.612,0.079,1.203,0.211,1.772
			c2.181,24.005,43.419,44.655,90.395,44.655c34.312,0,65.535-11.032,80.781-26.325h119.696V0H108.746H100.646z M293.018,16.2
			V284.85h-94.099c0.126-0.701,0.158-1.413,0.222-2.13c0.132-0.569,0.211-1.16,0.211-1.772v-0.205V48.378v-2.906h-0.264
			c-1.213-11.306-9.345-21.447-22.28-29.272H293.018z M160.375,301.05c-12.772,5.728-30.364,10.125-51.629,10.125
			c-45.148,0-74.013-19.723-74.369-30.228h-0.032v-0.2l0,0V76.275c14.805,11.362,38.573,19.013,66.3,20.271
			c2.674,0.119,5.363,0.211,8.1,0.211s5.426-0.092,8.1-0.211c27.728-1.258,51.495-8.909,66.3-20.271v204.472l0,0v0.2h-0.031
			c-0.042,1.203-0.448,2.516-1.208,3.908c-1.392,2.531-3.965,5.311-7.572,8.1C170.717,295.745,166.013,298.524,160.375,301.05z
			 M100.646,16.395c2.647-0.124,5.348-0.195,8.1-0.195s5.453,0.071,8.1,0.195c36.801,1.798,62.619,15.649,65.937,29.073
			c0.231,0.973,0.363,1.945,0.363,2.905c0,1.717-0.442,3.462-1.196,5.194c-1.192,2.75-3.322,5.482-6.249,8.1
			c-10.563,9.45-31.681,17.36-58.86,18.689c-2.647,0.132-5.347,0.195-8.1,0.195c-2.755,0-5.455-0.071-8.1-0.195
			c-27.174-1.329-48.297-9.239-58.86-18.689c-2.927-2.618-5.054-5.344-6.249-8.1c-0.756-1.737-1.197-3.478-1.197-5.194
			c0-0.96,0.124-1.933,0.366-2.905C38.027,32.044,63.845,18.193,100.646,16.395z"/>
		<path d="M79.251,61.673c5.833,2.905,13.563,4.524,21.395,5.168c2.716,0.222,5.437,0.346,8.1,0.346s5.384-0.119,8.1-0.346
			c7.831-0.644,15.562-2.263,21.395-5.168c4.076-2.036,7.198-4.704,8.785-8.1c0.736-1.577,1.168-3.293,1.168-5.194
			c0-1.02-0.147-1.983-0.369-2.906c-2.336-9.821-16.49-14.37-30.979-15.562c-2.716-0.222-5.437-0.346-8.1-0.346
			s-5.384,0.119-8.1,0.346c-14.489,1.191-28.643,5.74-30.979,15.562c-0.222,0.928-0.369,1.886-0.369,2.906
			c0,1.901,0.432,3.618,1.168,5.194C72.053,56.969,75.175,59.637,79.251,61.673z M116.846,50.549c-2.452,0.25-5.081,0.432-8.1,0.432
			s-5.648-0.182-8.1-0.432c-4.757-0.48-8.548-1.306-11.172-2.17c2.618-0.87,6.415-1.695,11.172-2.175
			c2.452-0.25,5.081-0.433,8.1-0.433s5.648,0.182,8.1,0.433c4.757,0.48,8.554,1.305,11.172,2.175
			C125.394,49.249,121.603,50.068,116.846,50.549z"/>
	</g>
</g>
<g>
</g>
<g>
</g>
<g>
</g>
<g>
</g>
<g>
</g>
<g>
</g>
<g>
</g>
<g>
</g>
<g>
</g>
<g>
</g>
<g>
</g>
<g>
</g>
<g>
</g>
<g>
</g>
<g>
</g>
</svg>
